<mxfile host="65bd71144e">
    <diagram name="Page-1" id="CCfLwOTDMm2aRFTN9VpO">
        <mxGraphModel dx="909" dy="486" grid="1" gridSize="10" guides="1" tooltips="1" connect="1" arrows="1" fold="1" page="1" pageScale="1" pageWidth="850" pageHeight="1100" math="0" shadow="0">
            <root>
                <mxCell id="0"/>
                <mxCell id="1" parent="0"/>
                <mxCell id="NhcGAeQ0xQc54fAubXee-3" value="" style="edgeStyle=orthogonalEdgeStyle;rounded=0;orthogonalLoop=1;jettySize=auto;html=1;" parent="1" source="NhcGAeQ0xQc54fAubXee-1" target="NhcGAeQ0xQc54fAubXee-2" edge="1">
                    <mxGeometry relative="1" as="geometry"/>
                </mxCell>
                <mxCell id="NhcGAeQ0xQc54fAubXee-1" value="Main" style="rounded=1;whiteSpace=wrap;html=1;arcSize=50;" parent="1" vertex="1">
                    <mxGeometry x="365" y="60" width="120" height="60" as="geometry"/>
                </mxCell>
                <mxCell id="NhcGAeQ0xQc54fAubXee-5" value="" style="edgeStyle=orthogonalEdgeStyle;rounded=0;orthogonalLoop=1;jettySize=auto;html=1;" parent="1" source="NhcGAeQ0xQc54fAubXee-2" target="NhcGAeQ0xQc54fAubXee-4" edge="1">
                    <mxGeometry relative="1" as="geometry"/>
                </mxCell>
                <mxCell id="NhcGAeQ0xQc54fAubXee-2" value="playBoard[3][3] = {&lt;span style=&quot;background-color: transparent; color: light-dark(rgb(0, 0, 0), rgb(255, 255, 255));&quot;&gt;{&#39; &#39;, &#39; &#39;, &#39; &#39;},{&#39; &#39;, &#39; &#39;, &#39; &#39;}, {&#39; &#39;, &#39; &#39;,&#39; &#39;}}&amp;nbsp;&lt;/span&gt;" style="rounded=0;whiteSpace=wrap;html=1;" parent="1" vertex="1">
                    <mxGeometry x="237" y="180" width="377" height="70" as="geometry"/>
                </mxCell>
                <mxCell id="NhcGAeQ0xQc54fAubXee-7" value="" style="edgeStyle=orthogonalEdgeStyle;rounded=0;orthogonalLoop=1;jettySize=auto;html=1;" parent="1" source="NhcGAeQ0xQc54fAubXee-4" target="NhcGAeQ0xQc54fAubXee-6" edge="1">
                    <mxGeometry relative="1" as="geometry"/>
                </mxCell>
                <mxCell id="NhcGAeQ0xQc54fAubXee-4" value="turns[3][3]" style="rounded=0;whiteSpace=wrap;html=1;" parent="1" vertex="1">
                    <mxGeometry x="366" y="300" width="120" height="60" as="geometry"/>
                </mxCell>
                <mxCell id="NhcGAeQ0xQc54fAubXee-11" value="" style="edgeStyle=orthogonalEdgeStyle;rounded=0;orthogonalLoop=1;jettySize=auto;html=1;" parent="1" source="NhcGAeQ0xQc54fAubXee-6" edge="1">
                    <mxGeometry relative="1" as="geometry">
                        <mxPoint x="426" y="510" as="targetPoint"/>
                    </mxGeometry>
                </mxCell>
                <mxCell id="NhcGAeQ0xQc54fAubXee-6" value="whoseTurn = 1&amp;nbsp;" style="rounded=0;whiteSpace=wrap;html=1;" parent="1" vertex="1">
                    <mxGeometry x="366" y="410" width="120" height="60" as="geometry"/>
                </mxCell>
                <mxCell id="NhcGAeQ0xQc54fAubXee-26" value="" style="edgeStyle=orthogonalEdgeStyle;rounded=0;orthogonalLoop=1;jettySize=auto;html=1;" parent="1" source="NhcGAeQ0xQc54fAubXee-24" target="NhcGAeQ0xQc54fAubXee-25" edge="1">
                    <mxGeometry relative="1" as="geometry"/>
                </mxCell>
                <mxCell id="NhcGAeQ0xQc54fAubXee-24" value="scanTurn()" style="rounded=1;whiteSpace=wrap;html=1;arcSize=50;" parent="1" vertex="1">
                    <mxGeometry x="1215" y="60" width="120" height="60" as="geometry"/>
                </mxCell>
                <mxCell id="NhcGAeQ0xQc54fAubXee-52" value="" style="edgeStyle=orthogonalEdgeStyle;rounded=0;orthogonalLoop=1;jettySize=auto;html=1;" parent="1" source="NhcGAeQ0xQc54fAubXee-25" target="NhcGAeQ0xQc54fAubXee-50" edge="1">
                    <mxGeometry relative="1" as="geometry"/>
                </mxCell>
                <mxCell id="NhcGAeQ0xQc54fAubXee-25" value="x, y&amp;nbsp;" style="rounded=0;whiteSpace=wrap;html=1;" parent="1" vertex="1">
                    <mxGeometry x="1215" y="160" width="120" height="60" as="geometry"/>
                </mxCell>
                <mxCell id="NhcGAeQ0xQc54fAubXee-72" value="" style="edgeStyle=orthogonalEdgeStyle;rounded=0;orthogonalLoop=1;jettySize=auto;html=1;" parent="1" source="NhcGAeQ0xQc54fAubXee-50" target="NhcGAeQ0xQc54fAubXee-54" edge="1">
                    <mxGeometry relative="1" as="geometry"/>
                </mxCell>
                <mxCell id="NhcGAeQ0xQc54fAubXee-50" value="True" style="rhombus;whiteSpace=wrap;html=1;" parent="1" vertex="1">
                    <mxGeometry x="1198" y="300" width="155" height="80" as="geometry"/>
                </mxCell>
                <mxCell id="NhcGAeQ0xQc54fAubXee-53" value="" style="edgeStyle=orthogonalEdgeStyle;rounded=0;orthogonalLoop=1;jettySize=auto;html=1;" parent="1" source="NhcGAeQ0xQc54fAubXee-54" target="NhcGAeQ0xQc54fAubXee-56" edge="1">
                    <mxGeometry relative="1" as="geometry"/>
                </mxCell>
                <mxCell id="NhcGAeQ0xQc54fAubXee-54" value="Player `(whoseTurn % 2 == 0) ? &#39;X&#39; : &#39;Y&#39;` enter your move (column row)" style="shape=parallelogram;perimeter=parallelogramPerimeter;whiteSpace=wrap;html=1;fixedSize=1;" parent="1" vertex="1">
                    <mxGeometry x="1049.5" y="480" width="452" height="60" as="geometry"/>
                </mxCell>
                <mxCell id="NhcGAeQ0xQc54fAubXee-55" value="" style="edgeStyle=orthogonalEdgeStyle;rounded=0;orthogonalLoop=1;jettySize=auto;html=1;" parent="1" source="NhcGAeQ0xQc54fAubXee-56" target="NhcGAeQ0xQc54fAubXee-60" edge="1">
                    <mxGeometry relative="1" as="geometry"/>
                </mxCell>
                <mxCell id="NhcGAeQ0xQc54fAubXee-56" value="x y&amp;nbsp;" style="shape=parallelogram;perimeter=parallelogramPerimeter;whiteSpace=wrap;html=1;fixedSize=1;" parent="1" vertex="1">
                    <mxGeometry x="1215.5" y="600" width="120" height="60" as="geometry"/>
                </mxCell>
                <mxCell id="NhcGAeQ0xQc54fAubXee-57" value="scnaf" style="text;html=1;align=center;verticalAlign=middle;whiteSpace=wrap;rounded=0;" parent="1" vertex="1">
                    <mxGeometry x="1430.5" y="615" width="60" height="30" as="geometry"/>
                </mxCell>
                <mxCell id="NhcGAeQ0xQc54fAubXee-58" value="" style="shape=flexArrow;endArrow=classic;html=1;rounded=0;entryX=0;entryY=0.5;entryDx=0;entryDy=0;" parent="1" target="NhcGAeQ0xQc54fAubXee-57" edge="1">
                    <mxGeometry width="50" height="50" relative="1" as="geometry">
                        <mxPoint x="1390.5" y="630" as="sourcePoint"/>
                        <mxPoint x="1410.5" y="620" as="targetPoint"/>
                    </mxGeometry>
                </mxCell>
                <mxCell id="NhcGAeQ0xQc54fAubXee-59" value="" style="edgeStyle=orthogonalEdgeStyle;rounded=0;orthogonalLoop=1;jettySize=auto;html=1;" parent="1" source="NhcGAeQ0xQc54fAubXee-60" target="NhcGAeQ0xQc54fAubXee-62" edge="1">
                    <mxGeometry relative="1" as="geometry"/>
                </mxCell>
                <mxCell id="NhcGAeQ0xQc54fAubXee-60" value="x = x - 1&amp;nbsp;&lt;div&gt;y = y - 1&lt;/div&gt;" style="rounded=0;whiteSpace=wrap;html=1;" parent="1" vertex="1">
                    <mxGeometry x="1215.5" y="710" width="120" height="60" as="geometry"/>
                </mxCell>
                <mxCell id="NhcGAeQ0xQc54fAubXee-61" style="edgeStyle=orthogonalEdgeStyle;rounded=0;orthogonalLoop=1;jettySize=auto;html=1;" parent="1" source="NhcGAeQ0xQc54fAubXee-62" target="NhcGAeQ0xQc54fAubXee-64" edge="1">
                    <mxGeometry relative="1" as="geometry">
                        <Array as="points">
                            <mxPoint x="1276.5" y="990"/>
                            <mxPoint x="1276.5" y="960"/>
                        </Array>
                    </mxGeometry>
                </mxCell>
                <mxCell id="NhcGAeQ0xQc54fAubXee-80" style="edgeStyle=orthogonalEdgeStyle;rounded=0;orthogonalLoop=1;jettySize=auto;html=1;" parent="1" source="NhcGAeQ0xQc54fAubXee-62" target="NhcGAeQ0xQc54fAubXee-79" edge="1">
                    <mxGeometry relative="1" as="geometry">
                        <Array as="points">
                            <mxPoint x="985" y="855"/>
                        </Array>
                    </mxGeometry>
                </mxCell>
                <mxCell id="NhcGAeQ0xQc54fAubXee-62" value="x &amp;gt;= 0 &amp;amp;&amp;amp; x &amp;lt; 3 &amp;amp;&amp;amp; y &amp;gt;= 0 &amp;amp;&amp;amp; y &amp;lt; 3" style="rhombus;whiteSpace=wrap;html=1;" parent="1" vertex="1">
                    <mxGeometry x="1103.5" y="810" width="345" height="90" as="geometry"/>
                </mxCell>
                <mxCell id="NhcGAeQ0xQc54fAubXee-63" value="" style="edgeStyle=orthogonalEdgeStyle;rounded=0;orthogonalLoop=1;jettySize=auto;html=1;" parent="1" source="NhcGAeQ0xQc54fAubXee-64" target="NhcGAeQ0xQc54fAubXee-68" edge="1">
                    <mxGeometry relative="1" as="geometry"/>
                </mxCell>
                <mxCell id="NhcGAeQ0xQc54fAubXee-76" style="edgeStyle=orthogonalEdgeStyle;rounded=0;orthogonalLoop=1;jettySize=auto;html=1;entryX=0.5;entryY=0;entryDx=0;entryDy=0;" parent="1" source="NhcGAeQ0xQc54fAubXee-64" target="NhcGAeQ0xQc54fAubXee-75" edge="1">
                    <mxGeometry relative="1" as="geometry"/>
                </mxCell>
                <mxCell id="NhcGAeQ0xQc54fAubXee-64" value="playBoard[y][x] == &#39; &#39;" style="rhombus;whiteSpace=wrap;html=1;" parent="1" vertex="1">
                    <mxGeometry x="1171" y="960" width="210" height="80" as="geometry"/>
                </mxCell>
                <mxCell id="NhcGAeQ0xQc54fAubXee-65" value="True" style="text;html=1;align=center;verticalAlign=middle;whiteSpace=wrap;rounded=0;" parent="1" vertex="1">
                    <mxGeometry x="1300.5" y="910" width="60" height="30" as="geometry"/>
                </mxCell>
                <mxCell id="NhcGAeQ0xQc54fAubXee-66" value="True" style="text;html=1;align=center;verticalAlign=middle;whiteSpace=wrap;rounded=0;" parent="1" vertex="1">
                    <mxGeometry x="1300.5" y="1080" width="60" height="30" as="geometry"/>
                </mxCell>
                <mxCell id="NhcGAeQ0xQc54fAubXee-67" value="" style="edgeStyle=orthogonalEdgeStyle;rounded=0;orthogonalLoop=1;jettySize=auto;html=1;" parent="1" source="NhcGAeQ0xQc54fAubXee-68" target="NhcGAeQ0xQc54fAubXee-70" edge="1">
                    <mxGeometry relative="1" as="geometry"/>
                </mxCell>
                <mxCell id="NhcGAeQ0xQc54fAubXee-68" value="saveChoice(x, y, playBoard);" style="rounded=0;whiteSpace=wrap;html=1;" parent="1" vertex="1">
                    <mxGeometry x="1183.5" y="1140" width="185" height="60" as="geometry"/>
                </mxCell>
                <mxCell id="NhcGAeQ0xQc54fAubXee-69" value="" style="edgeStyle=orthogonalEdgeStyle;rounded=0;orthogonalLoop=1;jettySize=auto;html=1;" parent="1" source="NhcGAeQ0xQc54fAubXee-70" edge="1">
                    <mxGeometry relative="1" as="geometry">
                        <mxPoint x="1275.4782608695655" y="1340" as="targetPoint"/>
                    </mxGeometry>
                </mxCell>
                <mxCell id="NhcGAeQ0xQc54fAubXee-70" value="whoseTurn = whoseTurn + 1&amp;nbsp;" style="rounded=0;whiteSpace=wrap;html=1;" parent="1" vertex="1">
                    <mxGeometry x="1183.5" y="1240" width="185" height="60" as="geometry"/>
                </mxCell>
                <mxCell id="NhcGAeQ0xQc54fAubXee-73" value="True" style="text;html=1;align=center;verticalAlign=middle;whiteSpace=wrap;rounded=0;" parent="1" vertex="1">
                    <mxGeometry x="1293" y="410" width="60" height="30" as="geometry"/>
                </mxCell>
                <mxCell id="NhcGAeQ0xQc54fAubXee-77" style="edgeStyle=orthogonalEdgeStyle;rounded=0;orthogonalLoop=1;jettySize=auto;html=1;entryX=0.5;entryY=0;entryDx=0;entryDy=0;" parent="1" source="NhcGAeQ0xQc54fAubXee-75" target="NhcGAeQ0xQc54fAubXee-50" edge="1">
                    <mxGeometry relative="1" as="geometry">
                        <Array as="points">
                            <mxPoint x="985" y="1250"/>
                            <mxPoint x="850" y="1250"/>
                            <mxPoint x="850" y="280"/>
                            <mxPoint x="1276" y="280"/>
                        </Array>
                    </mxGeometry>
                </mxCell>
                <mxCell id="NhcGAeQ0xQc54fAubXee-75" value="Cell is already taken! Try again." style="shape=parallelogram;perimeter=parallelogramPerimeter;whiteSpace=wrap;html=1;fixedSize=1;" parent="1" vertex="1">
                    <mxGeometry x="860" y="1140" width="250" height="60" as="geometry"/>
                </mxCell>
                <mxCell id="NhcGAeQ0xQc54fAubXee-81" style="edgeStyle=orthogonalEdgeStyle;rounded=0;orthogonalLoop=1;jettySize=auto;html=1;entryX=0.5;entryY=0;entryDx=0;entryDy=0;" parent="1" source="NhcGAeQ0xQc54fAubXee-79" target="NhcGAeQ0xQc54fAubXee-50" edge="1">
                    <mxGeometry relative="1" as="geometry">
                        <Array as="points">
                            <mxPoint x="985" y="980"/>
                            <mxPoint x="850" y="980"/>
                            <mxPoint x="850" y="280"/>
                            <mxPoint x="1275" y="280"/>
                        </Array>
                    </mxGeometry>
                </mxCell>
                <mxCell id="NhcGAeQ0xQc54fAubXee-79" value="&lt;span style=&quot;text-align: left;&quot;&gt;Invalid move. Try again&lt;/span&gt;" style="shape=parallelogram;perimeter=parallelogramPerimeter;whiteSpace=wrap;html=1;fixedSize=1;" parent="1" vertex="1">
                    <mxGeometry x="860" y="895" width="250" height="60" as="geometry"/>
                </mxCell>
                <mxCell id="NhcGAeQ0xQc54fAubXee-82" value="END" style="rounded=1;whiteSpace=wrap;html=1;arcSize=50;" parent="1" vertex="1">
                    <mxGeometry x="1216" y="1340" width="120" height="60" as="geometry"/>
                </mxCell>
                <mxCell id="VlTGWlfuHlnU-Y2UPzUy-5" value="" style="edgeStyle=orthogonalEdgeStyle;rounded=0;orthogonalLoop=1;jettySize=auto;html=1;" parent="1" source="VlTGWlfuHlnU-Y2UPzUy-2" target="VlTGWlfuHlnU-Y2UPzUy-4" edge="1">
                    <mxGeometry relative="1" as="geometry"/>
                </mxCell>
                <mxCell id="VlTGWlfuHlnU-Y2UPzUy-2" value="saveChoice(x, y, playBoard[3][3]" style="rounded=1;whiteSpace=wrap;html=1;arcSize=50;" parent="1" vertex="1">
                    <mxGeometry x="2028" y="50" width="195" height="60" as="geometry"/>
                </mxCell>
                <mxCell id="rTqfl7RvxBRZZm_zLEZS-4" value="" style="edgeStyle=orthogonalEdgeStyle;rounded=0;orthogonalLoop=1;jettySize=auto;html=1;" parent="1" source="VlTGWlfuHlnU-Y2UPzUy-4" target="rTqfl7RvxBRZZm_zLEZS-3" edge="1">
                    <mxGeometry relative="1" as="geometry"/>
                </mxCell>
                <mxCell id="VlTGWlfuHlnU-Y2UPzUy-4" value="playBoard[y][x] = (whoseTurn % 2 == 0) ? &#39;X&#39; : &#39;0&#39;" style="rounded=0;whiteSpace=wrap;html=1;" parent="1" vertex="1">
                    <mxGeometry x="1951.75" y="170" width="347.5" height="60" as="geometry"/>
                </mxCell>
                <mxCell id="VlTGWlfuHlnU-Y2UPzUy-6" value="END" style="rounded=1;whiteSpace=wrap;html=1;arcSize=50;" parent="1" vertex="1">
                    <mxGeometry x="2065" y="360" width="120" height="60" as="geometry"/>
                </mxCell>
                <mxCell id="rTqfl7RvxBRZZm_zLEZS-7" value="" style="edgeStyle=orthogonalEdgeStyle;rounded=0;orthogonalLoop=1;jettySize=auto;html=1;" parent="1" source="VlTGWlfuHlnU-Y2UPzUy-8" edge="1">
                    <mxGeometry relative="1" as="geometry">
                        <mxPoint x="2975" y="160" as="targetPoint"/>
                    </mxGeometry>
                </mxCell>
                <mxCell id="VlTGWlfuHlnU-Y2UPzUy-8" value="printBoard(array[3][3]" style="rounded=1;whiteSpace=wrap;html=1;arcSize=50;" parent="1" vertex="1">
                    <mxGeometry x="2915" y="50" width="120" height="60" as="geometry"/>
                </mxCell>
                <mxCell id="rTqfl7RvxBRZZm_zLEZS-5" value="" style="edgeStyle=orthogonalEdgeStyle;rounded=0;orthogonalLoop=1;jettySize=auto;html=1;" parent="1" source="rTqfl7RvxBRZZm_zLEZS-3" target="VlTGWlfuHlnU-Y2UPzUy-6" edge="1">
                    <mxGeometry relative="1" as="geometry"/>
                </mxCell>
                <mxCell id="rTqfl7RvxBRZZm_zLEZS-3" value="turns[y][x] = whoseTurn" style="rounded=0;whiteSpace=wrap;html=1;" parent="1" vertex="1">
                    <mxGeometry x="2018" y="270" width="215" height="60" as="geometry"/>
                </mxCell>
                <mxCell id="rTqfl7RvxBRZZm_zLEZS-10" value="" style="edgeStyle=orthogonalEdgeStyle;rounded=0;orthogonalLoop=1;jettySize=auto;html=1;" parent="1" source="rTqfl7RvxBRZZm_zLEZS-8" target="rTqfl7RvxBRZZm_zLEZS-9" edge="1">
                    <mxGeometry relative="1" as="geometry"/>
                </mxCell>
                <mxCell id="rTqfl7RvxBRZZm_zLEZS-8" value="\n" style="shape=parallelogram;perimeter=parallelogramPerimeter;whiteSpace=wrap;html=1;fixedSize=1;" parent="1" vertex="1">
                    <mxGeometry x="2915" y="160" width="120" height="60" as="geometry"/>
                </mxCell>
                <mxCell id="rTqfl7RvxBRZZm_zLEZS-13" style="edgeStyle=orthogonalEdgeStyle;rounded=0;orthogonalLoop=1;jettySize=auto;html=1;" parent="1" source="rTqfl7RvxBRZZm_zLEZS-9" target="rTqfl7RvxBRZZm_zLEZS-11" edge="1">
                    <mxGeometry relative="1" as="geometry"/>
                </mxCell>
                <mxCell id="rTqfl7RvxBRZZm_zLEZS-9" value="1 2 3" style="shape=parallelogram;perimeter=parallelogramPerimeter;whiteSpace=wrap;html=1;fixedSize=1;" parent="1" vertex="1">
                    <mxGeometry x="2915" y="270" width="120" height="60" as="geometry"/>
                </mxCell>
                <mxCell id="rTqfl7RvxBRZZm_zLEZS-15" value="" style="edgeStyle=orthogonalEdgeStyle;rounded=0;orthogonalLoop=1;jettySize=auto;html=1;" parent="1" source="rTqfl7RvxBRZZm_zLEZS-11" edge="1">
                    <mxGeometry relative="1" as="geometry">
                        <mxPoint x="2975.5" y="520" as="targetPoint"/>
                    </mxGeometry>
                </mxCell>
                <mxCell id="rTqfl7RvxBRZZm_zLEZS-45" style="edgeStyle=orthogonalEdgeStyle;rounded=0;orthogonalLoop=1;jettySize=auto;html=1;" parent="1" source="rTqfl7RvxBRZZm_zLEZS-11" target="rTqfl7RvxBRZZm_zLEZS-44" edge="1">
                    <mxGeometry relative="1" as="geometry"/>
                </mxCell>
                <mxCell id="rTqfl7RvxBRZZm_zLEZS-11" value="repeat 3 times (for i)" style="shape=hexagon;perimeter=hexagonPerimeter2;whiteSpace=wrap;html=1;fixedSize=1;" parent="1" vertex="1">
                    <mxGeometry x="2873" y="380" width="205" height="80" as="geometry"/>
                </mxCell>
                <mxCell id="rTqfl7RvxBRZZm_zLEZS-30" value="" style="edgeStyle=orthogonalEdgeStyle;rounded=0;orthogonalLoop=1;jettySize=auto;html=1;" parent="1" source="rTqfl7RvxBRZZm_zLEZS-21" target="rTqfl7RvxBRZZm_zLEZS-29" edge="1">
                    <mxGeometry relative="1" as="geometry"/>
                </mxCell>
                <mxCell id="rTqfl7RvxBRZZm_zLEZS-21" value="i + 1" style="shape=parallelogram;perimeter=parallelogramPerimeter;whiteSpace=wrap;html=1;fixedSize=1;" parent="1" vertex="1">
                    <mxGeometry x="2916" y="520" width="120" height="60" as="geometry"/>
                </mxCell>
                <mxCell id="rTqfl7RvxBRZZm_zLEZS-34" value="" style="edgeStyle=orthogonalEdgeStyle;rounded=0;orthogonalLoop=1;jettySize=auto;html=1;" parent="1" source="rTqfl7RvxBRZZm_zLEZS-29" target="rTqfl7RvxBRZZm_zLEZS-33" edge="1">
                    <mxGeometry relative="1" as="geometry"/>
                </mxCell>
                <mxCell id="rTqfl7RvxBRZZm_zLEZS-43" style="edgeStyle=orthogonalEdgeStyle;rounded=0;orthogonalLoop=1;jettySize=auto;html=1;entryX=1;entryY=0.5;entryDx=0;entryDy=0;" parent="1" source="rTqfl7RvxBRZZm_zLEZS-29" target="rTqfl7RvxBRZZm_zLEZS-11" edge="1">
                    <mxGeometry relative="1" as="geometry">
                        <Array as="points">
                            <mxPoint x="3210" y="690"/>
                            <mxPoint x="3210" y="420"/>
                        </Array>
                    </mxGeometry>
                </mxCell>
                <mxCell id="rTqfl7RvxBRZZm_zLEZS-29" value="repeat 3 times (for j)" style="shape=hexagon;perimeter=hexagonPerimeter2;whiteSpace=wrap;html=1;fixedSize=1;" parent="1" vertex="1">
                    <mxGeometry x="2873" y="650" width="205" height="80" as="geometry"/>
                </mxCell>
                <mxCell id="rTqfl7RvxBRZZm_zLEZS-36" value="" style="edgeStyle=orthogonalEdgeStyle;rounded=0;orthogonalLoop=1;jettySize=auto;html=1;" parent="1" source="rTqfl7RvxBRZZm_zLEZS-33" target="rTqfl7RvxBRZZm_zLEZS-35" edge="1">
                    <mxGeometry relative="1" as="geometry"/>
                </mxCell>
                <mxCell id="rTqfl7RvxBRZZm_zLEZS-33" value="array[i][j]" style="shape=parallelogram;perimeter=parallelogramPerimeter;whiteSpace=wrap;html=1;fixedSize=1;" parent="1" vertex="1">
                    <mxGeometry x="2916" y="790" width="120" height="60" as="geometry"/>
                </mxCell>
                <mxCell id="rTqfl7RvxBRZZm_zLEZS-40" value="" style="edgeStyle=orthogonalEdgeStyle;rounded=0;orthogonalLoop=1;jettySize=auto;html=1;" parent="1" source="rTqfl7RvxBRZZm_zLEZS-35" target="rTqfl7RvxBRZZm_zLEZS-39" edge="1">
                    <mxGeometry relative="1" as="geometry"/>
                </mxCell>
                <mxCell id="rTqfl7RvxBRZZm_zLEZS-42" style="edgeStyle=orthogonalEdgeStyle;rounded=0;orthogonalLoop=1;jettySize=auto;html=1;entryX=0;entryY=0.5;entryDx=0;entryDy=0;" parent="1" source="rTqfl7RvxBRZZm_zLEZS-35" target="rTqfl7RvxBRZZm_zLEZS-29" edge="1">
                    <mxGeometry relative="1" as="geometry">
                        <Array as="points">
                            <mxPoint x="2750" y="950"/>
                            <mxPoint x="2750" y="690"/>
                        </Array>
                    </mxGeometry>
                </mxCell>
                <mxCell id="rTqfl7RvxBRZZm_zLEZS-35" value="j &amp;lt; 2&amp;nbsp;" style="rhombus;whiteSpace=wrap;html=1;" parent="1" vertex="1">
                    <mxGeometry x="2866" y="910" width="220" height="80" as="geometry"/>
                </mxCell>
                <mxCell id="rTqfl7RvxBRZZm_zLEZS-38" value="True" style="text;html=1;align=center;verticalAlign=middle;whiteSpace=wrap;rounded=0;" parent="1" vertex="1">
                    <mxGeometry x="3010" y="1020" width="60" height="30" as="geometry"/>
                </mxCell>
                <mxCell id="rTqfl7RvxBRZZm_zLEZS-41" style="edgeStyle=orthogonalEdgeStyle;rounded=0;orthogonalLoop=1;jettySize=auto;html=1;entryX=0;entryY=0.5;entryDx=0;entryDy=0;" parent="1" source="rTqfl7RvxBRZZm_zLEZS-39" target="rTqfl7RvxBRZZm_zLEZS-29" edge="1">
                    <mxGeometry relative="1" as="geometry">
                        <Array as="points">
                            <mxPoint x="2976" y="1190"/>
                            <mxPoint x="2750" y="1190"/>
                            <mxPoint x="2750" y="690"/>
                        </Array>
                    </mxGeometry>
                </mxCell>
                <mxCell id="rTqfl7RvxBRZZm_zLEZS-39" value="|" style="shape=parallelogram;perimeter=parallelogramPerimeter;whiteSpace=wrap;html=1;fixedSize=1;" parent="1" vertex="1">
                    <mxGeometry x="2916" y="1090" width="120" height="60" as="geometry"/>
                </mxCell>
                <mxCell id="rTqfl7RvxBRZZm_zLEZS-47" value="" style="edgeStyle=orthogonalEdgeStyle;rounded=0;orthogonalLoop=1;jettySize=auto;html=1;" parent="1" source="rTqfl7RvxBRZZm_zLEZS-44" target="rTqfl7RvxBRZZm_zLEZS-46" edge="1">
                    <mxGeometry relative="1" as="geometry"/>
                </mxCell>
                <mxCell id="rTqfl7RvxBRZZm_zLEZS-44" value="\n" style="shape=parallelogram;perimeter=parallelogramPerimeter;whiteSpace=wrap;html=1;fixedSize=1;" parent="1" vertex="1">
                    <mxGeometry x="2670" y="480" width="120" height="60" as="geometry"/>
                </mxCell>
                <mxCell id="rTqfl7RvxBRZZm_zLEZS-46" value="END" style="rounded=1;whiteSpace=wrap;html=1;arcSize=50;" parent="1" vertex="1">
                    <mxGeometry x="2670" y="575" width="120" height="60" as="geometry"/>
                </mxCell>
                <mxCell id="rTqfl7RvxBRZZm_zLEZS-50" value="" style="edgeStyle=orthogonalEdgeStyle;rounded=0;orthogonalLoop=1;jettySize=auto;html=1;" parent="1" source="rTqfl7RvxBRZZm_zLEZS-48" target="rTqfl7RvxBRZZm_zLEZS-49" edge="1">
                    <mxGeometry relative="1" as="geometry"/>
                </mxCell>
                <mxCell id="rTqfl7RvxBRZZm_zLEZS-48" value="updateBoard(playBoard[3][3])" style="rounded=1;whiteSpace=wrap;html=1;arcSize=50;" parent="1" vertex="1">
                    <mxGeometry x="4152" y="60" width="195" height="60" as="geometry"/>
                </mxCell>
                <mxCell id="rTqfl7RvxBRZZm_zLEZS-52" value="" style="edgeStyle=orthogonalEdgeStyle;rounded=0;orthogonalLoop=1;jettySize=auto;html=1;" parent="1" source="rTqfl7RvxBRZZm_zLEZS-49" target="rTqfl7RvxBRZZm_zLEZS-51" edge="1">
                    <mxGeometry relative="1" as="geometry"/>
                </mxCell>
                <mxCell id="rTqfl7RvxBRZZm_zLEZS-88" style="edgeStyle=orthogonalEdgeStyle;rounded=0;orthogonalLoop=1;jettySize=auto;html=1;" parent="1" source="rTqfl7RvxBRZZm_zLEZS-49" target="rTqfl7RvxBRZZm_zLEZS-87" edge="1">
                    <mxGeometry relative="1" as="geometry"/>
                </mxCell>
                <mxCell id="rTqfl7RvxBRZZm_zLEZS-49" value="repeat 3 times (for y)" style="shape=hexagon;perimeter=hexagonPerimeter2;whiteSpace=wrap;html=1;fixedSize=1;" parent="1" vertex="1">
                    <mxGeometry x="4164" y="180" width="170" height="80" as="geometry"/>
                </mxCell>
                <mxCell id="rTqfl7RvxBRZZm_zLEZS-55" style="edgeStyle=orthogonalEdgeStyle;rounded=0;orthogonalLoop=1;jettySize=auto;html=1;" parent="1" source="rTqfl7RvxBRZZm_zLEZS-51" target="rTqfl7RvxBRZZm_zLEZS-53" edge="1">
                    <mxGeometry relative="1" as="geometry"/>
                </mxCell>
                <mxCell id="Nqgy3YUJCUdTd1dHTm8s-17" style="edgeStyle=orthogonalEdgeStyle;rounded=0;orthogonalLoop=1;jettySize=auto;html=1;entryX=0.5;entryY=1;entryDx=0;entryDy=0;" parent="1" source="rTqfl7RvxBRZZm_zLEZS-51" target="Nqgy3YUJCUdTd1dHTm8s-16" edge="1">
                    <mxGeometry relative="1" as="geometry"/>
                </mxCell>
                <mxCell id="rTqfl7RvxBRZZm_zLEZS-51" value="repeat 3 times (for x)" style="shape=hexagon;perimeter=hexagonPerimeter2;whiteSpace=wrap;html=1;fixedSize=1;" parent="1" vertex="1">
                    <mxGeometry x="4164.5" y="320" width="170" height="80" as="geometry"/>
                </mxCell>
                <mxCell id="rTqfl7RvxBRZZm_zLEZS-57" style="edgeStyle=orthogonalEdgeStyle;rounded=0;orthogonalLoop=1;jettySize=auto;html=1;" parent="1" source="rTqfl7RvxBRZZm_zLEZS-53" target="rTqfl7RvxBRZZm_zLEZS-56" edge="1">
                    <mxGeometry relative="1" as="geometry"/>
                </mxCell>
                <mxCell id="rTqfl7RvxBRZZm_zLEZS-53" value="turns[y][x] &amp;gt; 0" style="rhombus;whiteSpace=wrap;html=1;" parent="1" vertex="1">
                    <mxGeometry x="4152" y="470" width="196" height="80" as="geometry"/>
                </mxCell>
                <mxCell id="rTqfl7RvxBRZZm_zLEZS-60" value="" style="edgeStyle=orthogonalEdgeStyle;rounded=0;orthogonalLoop=1;jettySize=auto;html=1;" parent="1" source="rTqfl7RvxBRZZm_zLEZS-56" target="rTqfl7RvxBRZZm_zLEZS-59" edge="1">
                    <mxGeometry relative="1" as="geometry"/>
                </mxCell>
                <mxCell id="rTqfl7RvxBRZZm_zLEZS-56" value="age = (whoseTurn - turns[y][x]) / 2" style="rounded=0;whiteSpace=wrap;html=1;" parent="1" vertex="1">
                    <mxGeometry x="4364" y="580" width="210" height="60" as="geometry"/>
                </mxCell>
                <mxCell id="rTqfl7RvxBRZZm_zLEZS-58" value="True" style="text;html=1;align=center;verticalAlign=middle;whiteSpace=wrap;rounded=0;" parent="1" vertex="1">
                    <mxGeometry x="4348" y="470" width="60" height="30" as="geometry"/>
                </mxCell>
                <mxCell id="rTqfl7RvxBRZZm_zLEZS-63" style="edgeStyle=orthogonalEdgeStyle;rounded=0;orthogonalLoop=1;jettySize=auto;html=1;" parent="1" source="rTqfl7RvxBRZZm_zLEZS-59" target="rTqfl7RvxBRZZm_zLEZS-62" edge="1">
                    <mxGeometry relative="1" as="geometry">
                        <Array as="points">
                            <mxPoint x="4624" y="760"/>
                        </Array>
                    </mxGeometry>
                </mxCell>
                <mxCell id="rTqfl7RvxBRZZm_zLEZS-79" style="edgeStyle=orthogonalEdgeStyle;rounded=0;orthogonalLoop=1;jettySize=auto;html=1;" parent="1" source="rTqfl7RvxBRZZm_zLEZS-59" target="rTqfl7RvxBRZZm_zLEZS-77" edge="1">
                    <mxGeometry relative="1" as="geometry"/>
                </mxCell>
                <mxCell id="rTqfl7RvxBRZZm_zLEZS-59" value="age == 2" style="rhombus;whiteSpace=wrap;html=1;" parent="1" vertex="1">
                    <mxGeometry x="4371" y="720" width="196" height="80" as="geometry"/>
                </mxCell>
                <mxCell id="rTqfl7RvxBRZZm_zLEZS-61" value="True" style="text;html=1;align=center;verticalAlign=middle;whiteSpace=wrap;rounded=0;" parent="1" vertex="1">
                    <mxGeometry x="4554" y="720" width="60" height="30" as="geometry"/>
                </mxCell>
                <mxCell id="rTqfl7RvxBRZZm_zLEZS-65" style="edgeStyle=orthogonalEdgeStyle;rounded=0;orthogonalLoop=1;jettySize=auto;html=1;" parent="1" source="rTqfl7RvxBRZZm_zLEZS-62" target="rTqfl7RvxBRZZm_zLEZS-64" edge="1">
                    <mxGeometry relative="1" as="geometry">
                        <Array as="points">
                            <mxPoint x="4780" y="850"/>
                        </Array>
                    </mxGeometry>
                </mxCell>
                <mxCell id="rTqfl7RvxBRZZm_zLEZS-68" style="edgeStyle=orthogonalEdgeStyle;rounded=0;orthogonalLoop=1;jettySize=auto;html=1;" parent="1" source="rTqfl7RvxBRZZm_zLEZS-62" target="rTqfl7RvxBRZZm_zLEZS-67" edge="1">
                    <mxGeometry relative="1" as="geometry">
                        <Array as="points">
                            <mxPoint x="4476" y="850"/>
                        </Array>
                    </mxGeometry>
                </mxCell>
                <mxCell id="rTqfl7RvxBRZZm_zLEZS-62" value="playBoard[y][x] == &#39;X&#39;&amp;nbsp;" style="rhombus;whiteSpace=wrap;html=1;" parent="1" vertex="1">
                    <mxGeometry x="4524" y="810" width="196" height="80" as="geometry"/>
                </mxCell>
                <mxCell id="rTqfl7RvxBRZZm_zLEZS-64" value="playBoard[y][x] == &#39;x&#39;&amp;nbsp;" style="rounded=0;whiteSpace=wrap;html=1;" parent="1" vertex="1">
                    <mxGeometry x="4720" y="900" width="120" height="60" as="geometry"/>
                </mxCell>
                <mxCell id="rTqfl7RvxBRZZm_zLEZS-66" value="True" style="text;html=1;align=center;verticalAlign=middle;whiteSpace=wrap;rounded=0;" parent="1" vertex="1">
                    <mxGeometry x="4720" y="820" width="60" height="30" as="geometry"/>
                </mxCell>
                <mxCell id="rTqfl7RvxBRZZm_zLEZS-70" style="edgeStyle=orthogonalEdgeStyle;rounded=0;orthogonalLoop=1;jettySize=auto;html=1;entryX=0.5;entryY=0;entryDx=0;entryDy=0;" parent="1" source="rTqfl7RvxBRZZm_zLEZS-67" target="rTqfl7RvxBRZZm_zLEZS-69" edge="1">
                    <mxGeometry relative="1" as="geometry">
                        <Array as="points">
                            <mxPoint x="4614" y="960"/>
                        </Array>
                    </mxGeometry>
                </mxCell>
                <mxCell id="rTqfl7RvxBRZZm_zLEZS-76" style="edgeStyle=orthogonalEdgeStyle;rounded=0;orthogonalLoop=1;jettySize=auto;html=1;entryX=1;entryY=0.5;entryDx=0;entryDy=0;" parent="1" source="rTqfl7RvxBRZZm_zLEZS-67" target="rTqfl7RvxBRZZm_zLEZS-51" edge="1">
                    <mxGeometry relative="1" as="geometry">
                        <Array as="points">
                            <mxPoint x="4476" y="1090"/>
                            <mxPoint x="4894" y="1090"/>
                            <mxPoint x="4894" y="360"/>
                        </Array>
                    </mxGeometry>
                </mxCell>
                <mxCell id="rTqfl7RvxBRZZm_zLEZS-67" value="playBoard[y][x] == &#39;O&#39;&amp;nbsp;" style="rhombus;whiteSpace=wrap;html=1;" parent="1" vertex="1">
                    <mxGeometry x="4378" y="920" width="196" height="80" as="geometry"/>
                </mxCell>
                <mxCell id="rTqfl7RvxBRZZm_zLEZS-72" style="edgeStyle=orthogonalEdgeStyle;rounded=0;orthogonalLoop=1;jettySize=auto;html=1;entryX=1;entryY=0.5;entryDx=0;entryDy=0;" parent="1" source="rTqfl7RvxBRZZm_zLEZS-69" target="rTqfl7RvxBRZZm_zLEZS-51" edge="1">
                    <mxGeometry relative="1" as="geometry">
                        <Array as="points">
                            <mxPoint x="4614" y="1090"/>
                            <mxPoint x="4894" y="1090"/>
                            <mxPoint x="4894" y="360"/>
                        </Array>
                    </mxGeometry>
                </mxCell>
                <mxCell id="rTqfl7RvxBRZZm_zLEZS-69" value="playBoard[y][x] == &#39;o&#39;&amp;nbsp;" style="rounded=0;whiteSpace=wrap;html=1;" parent="1" vertex="1">
                    <mxGeometry x="4554" y="1005" width="120" height="60" as="geometry"/>
                </mxCell>
                <mxCell id="rTqfl7RvxBRZZm_zLEZS-71" value="True" style="text;html=1;align=center;verticalAlign=middle;whiteSpace=wrap;rounded=0;" parent="1" vertex="1">
                    <mxGeometry x="4564" y="930" width="60" height="30" as="geometry"/>
                </mxCell>
                <mxCell id="rTqfl7RvxBRZZm_zLEZS-75" style="edgeStyle=orthogonalEdgeStyle;rounded=0;orthogonalLoop=1;jettySize=auto;html=1;entryX=1;entryY=0.5;entryDx=0;entryDy=0;" parent="1" source="rTqfl7RvxBRZZm_zLEZS-64" target="rTqfl7RvxBRZZm_zLEZS-51" edge="1">
                    <mxGeometry relative="1" as="geometry">
                        <mxPoint x="4840" y="930" as="sourcePoint"/>
                        <mxPoint x="4335" y="360" as="targetPoint"/>
                        <Array as="points">
                            <mxPoint x="4780" y="980"/>
                            <mxPoint x="4894" y="980"/>
                            <mxPoint x="4894" y="360"/>
                        </Array>
                    </mxGeometry>
                </mxCell>
                <mxCell id="rTqfl7RvxBRZZm_zLEZS-81" style="edgeStyle=orthogonalEdgeStyle;rounded=0;orthogonalLoop=1;jettySize=auto;html=1;" parent="1" source="rTqfl7RvxBRZZm_zLEZS-77" target="rTqfl7RvxBRZZm_zLEZS-80" edge="1">
                    <mxGeometry relative="1" as="geometry">
                        <Array as="points">
                            <mxPoint x="4264" y="860"/>
                        </Array>
                    </mxGeometry>
                </mxCell>
                <mxCell id="rTqfl7RvxBRZZm_zLEZS-84" style="edgeStyle=orthogonalEdgeStyle;rounded=0;orthogonalLoop=1;jettySize=auto;html=1;entryX=1;entryY=0.5;entryDx=0;entryDy=0;" parent="1" source="rTqfl7RvxBRZZm_zLEZS-77" target="rTqfl7RvxBRZZm_zLEZS-51" edge="1">
                    <mxGeometry relative="1" as="geometry">
                        <Array as="points">
                            <mxPoint x="3964" y="860"/>
                            <mxPoint x="3964" y="1090"/>
                            <mxPoint x="4894" y="1090"/>
                            <mxPoint x="4894" y="360"/>
                        </Array>
                    </mxGeometry>
                </mxCell>
                <mxCell id="rTqfl7RvxBRZZm_zLEZS-77" value="age == 3" style="rhombus;whiteSpace=wrap;html=1;" parent="1" vertex="1">
                    <mxGeometry x="4014" y="820" width="196" height="80" as="geometry"/>
                </mxCell>
                <mxCell id="rTqfl7RvxBRZZm_zLEZS-83" value="" style="edgeStyle=orthogonalEdgeStyle;rounded=0;orthogonalLoop=1;jettySize=auto;html=1;" parent="1" source="rTqfl7RvxBRZZm_zLEZS-80" target="rTqfl7RvxBRZZm_zLEZS-82" edge="1">
                    <mxGeometry relative="1" as="geometry"/>
                </mxCell>
                <mxCell id="rTqfl7RvxBRZZm_zLEZS-80" value="playBoard[y][x] == &#39; &#39;&amp;nbsp;" style="rounded=0;whiteSpace=wrap;html=1;" parent="1" vertex="1">
                    <mxGeometry x="4204" y="910" width="120" height="60" as="geometry"/>
                </mxCell>
                <mxCell id="rTqfl7RvxBRZZm_zLEZS-85" style="edgeStyle=orthogonalEdgeStyle;rounded=0;orthogonalLoop=1;jettySize=auto;html=1;entryX=1;entryY=0.5;entryDx=0;entryDy=0;" parent="1" source="rTqfl7RvxBRZZm_zLEZS-82" target="rTqfl7RvxBRZZm_zLEZS-51" edge="1">
                    <mxGeometry relative="1" as="geometry">
                        <Array as="points">
                            <mxPoint x="4264" y="1090"/>
                            <mxPoint x="4894" y="1090"/>
                            <mxPoint x="4894" y="360"/>
                        </Array>
                    </mxGeometry>
                </mxCell>
                <mxCell id="rTqfl7RvxBRZZm_zLEZS-82" value="turns[y][x] = 0" style="rounded=0;whiteSpace=wrap;html=1;" parent="1" vertex="1">
                    <mxGeometry x="4204" y="1005" width="120" height="60" as="geometry"/>
                </mxCell>
                <mxCell id="rTqfl7RvxBRZZm_zLEZS-87" value="END" style="rounded=1;whiteSpace=wrap;html=1;arcSize=50;" parent="1" vertex="1">
                    <mxGeometry x="4384" y="270" width="120" height="60" as="geometry"/>
                </mxCell>
                <mxCell id="Nqgy3YUJCUdTd1dHTm8s-11" value="" style="edgeStyle=orthogonalEdgeStyle;rounded=0;orthogonalLoop=1;jettySize=auto;html=1;" parent="1" source="Nqgy3YUJCUdTd1dHTm8s-1" target="Nqgy3YUJCUdTd1dHTm8s-9" edge="1">
                    <mxGeometry relative="1" as="geometry"/>
                </mxCell>
                <mxCell id="Nqgy3YUJCUdTd1dHTm8s-1" value="printBoard(playBoard)" style="rounded=0;whiteSpace=wrap;html=1;" parent="1" vertex="1">
                    <mxGeometry x="366" y="515" width="120" height="60" as="geometry"/>
                </mxCell>
                <mxCell id="Nqgy3YUJCUdTd1dHTm8s-2" value="" style="edgeStyle=orthogonalEdgeStyle;rounded=0;orthogonalLoop=1;jettySize=auto;html=1;" parent="1" target="Nqgy3YUJCUdTd1dHTm8s-4" edge="1">
                    <mxGeometry relative="1" as="geometry">
                        <mxPoint x="425.96" y="715" as="sourcePoint"/>
                    </mxGeometry>
                </mxCell>
                <mxCell id="Nqgy3YUJCUdTd1dHTm8s-3" value="" style="edgeStyle=orthogonalEdgeStyle;rounded=0;orthogonalLoop=1;jettySize=auto;html=1;" parent="1" source="Nqgy3YUJCUdTd1dHTm8s-4" target="Nqgy3YUJCUdTd1dHTm8s-6" edge="1">
                    <mxGeometry relative="1" as="geometry"/>
                </mxCell>
                <mxCell id="Nqgy3YUJCUdTd1dHTm8s-4" value="scanTurn()" style="rounded=0;whiteSpace=wrap;html=1;" parent="1" vertex="1">
                    <mxGeometry x="365.96" y="755" width="120" height="60" as="geometry"/>
                </mxCell>
                <mxCell id="Nqgy3YUJCUdTd1dHTm8s-5" value="" style="edgeStyle=orthogonalEdgeStyle;rounded=0;orthogonalLoop=1;jettySize=auto;html=1;" parent="1" source="Nqgy3YUJCUdTd1dHTm8s-6" target="Nqgy3YUJCUdTd1dHTm8s-8" edge="1">
                    <mxGeometry relative="1" as="geometry"/>
                </mxCell>
                <mxCell id="Nqgy3YUJCUdTd1dHTm8s-6" value="printBoard(playBoard)" style="rounded=0;whiteSpace=wrap;html=1;" parent="1" vertex="1">
                    <mxGeometry x="364.96" y="845" width="120" height="60" as="geometry"/>
                </mxCell>
                <mxCell id="Nqgy3YUJCUdTd1dHTm8s-7" style="edgeStyle=orthogonalEdgeStyle;rounded=0;orthogonalLoop=1;jettySize=auto;html=1;entryX=0.5;entryY=0;entryDx=0;entryDy=0;" parent="1" source="Nqgy3YUJCUdTd1dHTm8s-8" target="Nqgy3YUJCUdTd1dHTm8s-9" edge="1">
                    <mxGeometry relative="1" as="geometry">
                        <Array as="points">
                            <mxPoint x="424.96" y="1035"/>
                            <mxPoint x="249.96" y="1035"/>
                            <mxPoint x="249.96" y="615"/>
                            <mxPoint x="425.96" y="615"/>
                        </Array>
                    </mxGeometry>
                </mxCell>
                <mxCell id="Nqgy3YUJCUdTd1dHTm8s-8" value="checkWin(playBoard)" style="rounded=0;whiteSpace=wrap;html=1;" parent="1" vertex="1">
                    <mxGeometry x="364.96" y="945" width="120" height="60" as="geometry"/>
                </mxCell>
                <mxCell id="Nqgy3YUJCUdTd1dHTm8s-9" value="true" style="rhombus;whiteSpace=wrap;html=1;" parent="1" vertex="1">
                    <mxGeometry x="295.46" y="635" width="260" height="80" as="geometry"/>
                </mxCell>
                <mxCell id="Nqgy3YUJCUdTd1dHTm8s-10" value="True" style="text;html=1;align=center;verticalAlign=middle;whiteSpace=wrap;rounded=0;" parent="1" vertex="1">
                    <mxGeometry x="439.96" y="715" width="60" height="30" as="geometry"/>
                </mxCell>
                <mxCell id="Nqgy3YUJCUdTd1dHTm8s-14" value="" style="edgeStyle=orthogonalEdgeStyle;rounded=0;orthogonalLoop=1;jettySize=auto;html=1;" parent="1" source="Nqgy3YUJCUdTd1dHTm8s-27" target="Nqgy3YUJCUdTd1dHTm8s-13" edge="1">
                    <mxGeometry relative="1" as="geometry"/>
                </mxCell>
                <mxCell id="Nqgy3YUJCUdTd1dHTm8s-12" value="checkWin(playBoard[3][3]" style="rounded=1;whiteSpace=wrap;html=1;arcSize=50;" parent="1" vertex="1">
                    <mxGeometry x="5408" y="60" width="235" height="60" as="geometry"/>
                </mxCell>
                <mxCell id="Nqgy3YUJCUdTd1dHTm8s-22" value="" style="edgeStyle=orthogonalEdgeStyle;rounded=0;orthogonalLoop=1;jettySize=auto;html=1;" parent="1" source="Nqgy3YUJCUdTd1dHTm8s-13" target="Nqgy3YUJCUdTd1dHTm8s-21" edge="1">
                    <mxGeometry relative="1" as="geometry"/>
                </mxCell>
                <mxCell id="Nqgy3YUJCUdTd1dHTm8s-56" style="edgeStyle=orthogonalEdgeStyle;rounded=0;orthogonalLoop=1;jettySize=auto;html=1;" parent="1" source="Nqgy3YUJCUdTd1dHTm8s-57" target="Nqgy3YUJCUdTd1dHTm8s-41" edge="1">
                    <mxGeometry relative="1" as="geometry"/>
                </mxCell>
                <mxCell id="Nqgy3YUJCUdTd1dHTm8s-13" value="repeat 3 times (for i)&amp;nbsp;" style="shape=hexagon;perimeter=hexagonPerimeter2;whiteSpace=wrap;html=1;fixedSize=1;" parent="1" vertex="1">
                    <mxGeometry x="5407" y="290" width="236" height="80" as="geometry"/>
                </mxCell>
                <mxCell id="Nqgy3YUJCUdTd1dHTm8s-15" value="x = x + 1&amp;nbsp;" style="rounded=0;whiteSpace=wrap;html=1;" parent="1" vertex="1">
                    <mxGeometry x="4600" y="330" width="120" height="60" as="geometry"/>
                </mxCell>
                <mxCell id="Nqgy3YUJCUdTd1dHTm8s-18" style="edgeStyle=orthogonalEdgeStyle;rounded=0;orthogonalLoop=1;jettySize=auto;html=1;entryX=0;entryY=0.5;entryDx=0;entryDy=0;" parent="1" source="Nqgy3YUJCUdTd1dHTm8s-16" target="rTqfl7RvxBRZZm_zLEZS-49" edge="1">
                    <mxGeometry relative="1" as="geometry">
                        <Array as="points">
                            <mxPoint x="4030" y="220"/>
                        </Array>
                    </mxGeometry>
                </mxCell>
                <mxCell id="Nqgy3YUJCUdTd1dHTm8s-16" value="y = y + 1&amp;nbsp;" style="rounded=0;whiteSpace=wrap;html=1;" parent="1" vertex="1">
                    <mxGeometry x="3970" y="270" width="120" height="60" as="geometry"/>
                </mxCell>
                <mxCell id="Nqgy3YUJCUdTd1dHTm8s-19" value="j = j + 1" style="rounded=0;whiteSpace=wrap;html=1;" parent="1" vertex="1">
                    <mxGeometry x="2690" y="785" width="120" height="60" as="geometry"/>
                </mxCell>
                <mxCell id="Nqgy3YUJCUdTd1dHTm8s-20" value="i = i + 1" style="rounded=0;whiteSpace=wrap;html=1;" parent="1" vertex="1">
                    <mxGeometry x="3150" y="520" width="120" height="60" as="geometry"/>
                </mxCell>
                <mxCell id="Nqgy3YUJCUdTd1dHTm8s-26" style="edgeStyle=orthogonalEdgeStyle;rounded=0;orthogonalLoop=1;jettySize=auto;html=1;entryX=0.5;entryY=0;entryDx=0;entryDy=0;" parent="1" source="Nqgy3YUJCUdTd1dHTm8s-21" target="Nqgy3YUJCUdTd1dHTm8s-25" edge="1">
                    <mxGeometry relative="1" as="geometry"/>
                </mxCell>
                <mxCell id="Nqgy3YUJCUdTd1dHTm8s-30" value="" style="edgeStyle=orthogonalEdgeStyle;rounded=0;orthogonalLoop=1;jettySize=auto;html=1;" parent="1" source="Nqgy3YUJCUdTd1dHTm8s-21" target="Nqgy3YUJCUdTd1dHTm8s-29" edge="1">
                    <mxGeometry relative="1" as="geometry"/>
                </mxCell>
                <mxCell id="Nqgy3YUJCUdTd1dHTm8s-37" style="edgeStyle=orthogonalEdgeStyle;rounded=0;orthogonalLoop=1;jettySize=auto;html=1;entryX=0.5;entryY=1;entryDx=0;entryDy=0;" parent="1" source="Nqgy3YUJCUdTd1dHTm8s-21" target="Nqgy3YUJCUdTd1dHTm8s-35" edge="1">
                    <mxGeometry relative="1" as="geometry"/>
                </mxCell>
                <mxCell id="Nqgy3YUJCUdTd1dHTm8s-21" value="&lt;div&gt;(playBoard[i][0] == &#39;X&#39; || playBoard[i][0] == &#39;x&#39;) &amp;amp;&amp;amp;&lt;/div&gt;&lt;div&gt;(playBoard[i][1] == &#39;X&#39; || playBoard[i][1] == &#39;x&#39;) &amp;amp;&amp;amp;&lt;/div&gt;&lt;div&gt;(playBoard[i][2] == &#39;X&#39; || playBoard[i][2] == &#39;x&#39;)&lt;/div&gt;&lt;div&gt;&lt;br&gt;&lt;/div&gt;" style="rhombus;whiteSpace=wrap;html=1;" parent="1" vertex="1">
                    <mxGeometry x="5315.5" y="430" width="420" height="180" as="geometry"/>
                </mxCell>
                <mxCell id="Nqgy3YUJCUdTd1dHTm8s-25" value="winner = X" style="rounded=0;whiteSpace=wrap;html=1;" parent="1" vertex="1">
                    <mxGeometry x="5750" y="600" width="120" height="60" as="geometry"/>
                </mxCell>
                <mxCell id="Nqgy3YUJCUdTd1dHTm8s-28" value="" style="edgeStyle=orthogonalEdgeStyle;rounded=0;orthogonalLoop=1;jettySize=auto;html=1;" parent="1" source="Nqgy3YUJCUdTd1dHTm8s-12" target="Nqgy3YUJCUdTd1dHTm8s-27" edge="1">
                    <mxGeometry relative="1" as="geometry">
                        <mxPoint x="5525" y="120" as="sourcePoint"/>
                        <mxPoint x="5525" y="290" as="targetPoint"/>
                    </mxGeometry>
                </mxCell>
                <mxCell id="Nqgy3YUJCUdTd1dHTm8s-27" value="winner = &#39; &#39;&lt;br&gt;i = 0&amp;nbsp;" style="rounded=0;whiteSpace=wrap;html=1;" parent="1" vertex="1">
                    <mxGeometry x="5465" y="170" width="120" height="60" as="geometry"/>
                </mxCell>
                <mxCell id="Nqgy3YUJCUdTd1dHTm8s-34" style="edgeStyle=orthogonalEdgeStyle;rounded=0;orthogonalLoop=1;jettySize=auto;html=1;entryX=0.5;entryY=0;entryDx=0;entryDy=0;" parent="1" source="Nqgy3YUJCUdTd1dHTm8s-29" target="Nqgy3YUJCUdTd1dHTm8s-32" edge="1">
                    <mxGeometry relative="1" as="geometry"/>
                </mxCell>
                <mxCell id="Nqgy3YUJCUdTd1dHTm8s-36" style="edgeStyle=orthogonalEdgeStyle;rounded=0;orthogonalLoop=1;jettySize=auto;html=1;entryX=0.5;entryY=1;entryDx=0;entryDy=0;" parent="1" source="Nqgy3YUJCUdTd1dHTm8s-29" target="Nqgy3YUJCUdTd1dHTm8s-35" edge="1">
                    <mxGeometry relative="1" as="geometry"/>
                </mxCell>
                <mxCell id="Nqgy3YUJCUdTd1dHTm8s-29" value="&lt;div&gt;&lt;div&gt;(playBoard[i][0] == &#39;O&#39; || playBoard[i][0] == &#39;o&#39;) &amp;amp;&amp;amp;&lt;/div&gt;&lt;div&gt;(playBoard[i][1] == &#39;O&#39; || playBoard[i][1] == &#39;o&#39;) &amp;amp;&amp;amp;&lt;/div&gt;&lt;div&gt;(playBoard[i][2] == &#39;O&#39; || playBoard[i][2] == &#39;o&#39;)&lt;/div&gt;&lt;/div&gt;&lt;div&gt;&lt;br&gt;&lt;/div&gt;" style="rhombus;whiteSpace=wrap;html=1;" parent="1" vertex="1">
                    <mxGeometry x="5315" y="725" width="420" height="180" as="geometry"/>
                </mxCell>
                <mxCell id="Nqgy3YUJCUdTd1dHTm8s-31" value="True" style="text;html=1;align=center;verticalAlign=middle;whiteSpace=wrap;rounded=0;" parent="1" vertex="1">
                    <mxGeometry x="5730" y="485" width="60" height="30" as="geometry"/>
                </mxCell>
                <mxCell id="Nqgy3YUJCUdTd1dHTm8s-32" value="winner = O" style="rounded=0;whiteSpace=wrap;html=1;" parent="1" vertex="1">
                    <mxGeometry x="5750" y="882.5" width="120" height="60" as="geometry"/>
                </mxCell>
                <mxCell id="Nqgy3YUJCUdTd1dHTm8s-33" value="True" style="text;html=1;align=center;verticalAlign=middle;whiteSpace=wrap;rounded=0;" parent="1" vertex="1">
                    <mxGeometry x="5730" y="767.5" width="60" height="30" as="geometry"/>
                </mxCell>
                <mxCell id="Nqgy3YUJCUdTd1dHTm8s-38" style="edgeStyle=orthogonalEdgeStyle;rounded=0;orthogonalLoop=1;jettySize=auto;html=1;entryX=0;entryY=0.5;entryDx=0;entryDy=0;" parent="1" source="Nqgy3YUJCUdTd1dHTm8s-35" target="Nqgy3YUJCUdTd1dHTm8s-13" edge="1">
                    <mxGeometry relative="1" as="geometry">
                        <Array as="points">
                            <mxPoint x="5190" y="330"/>
                        </Array>
                    </mxGeometry>
                </mxCell>
                <mxCell id="Nqgy3YUJCUdTd1dHTm8s-35" value="i = i + 1" style="rounded=0;whiteSpace=wrap;html=1;" parent="1" vertex="1">
                    <mxGeometry x="5130" y="380" width="120" height="60" as="geometry"/>
                </mxCell>
                <mxCell id="Nqgy3YUJCUdTd1dHTm8s-40" value="" style="edgeStyle=orthogonalEdgeStyle;rounded=0;orthogonalLoop=1;jettySize=auto;html=1;" parent="1" source="Nqgy3YUJCUdTd1dHTm8s-41" target="Nqgy3YUJCUdTd1dHTm8s-45" edge="1">
                    <mxGeometry relative="1" as="geometry"/>
                </mxCell>
                <mxCell id="Nqgy3YUJCUdTd1dHTm8s-66" style="edgeStyle=orthogonalEdgeStyle;rounded=0;orthogonalLoop=1;jettySize=auto;html=1;" parent="1" source="Nqgy3YUJCUdTd1dHTm8s-41" target="Nqgy3YUJCUdTd1dHTm8s-60" edge="1">
                    <mxGeometry relative="1" as="geometry"/>
                </mxCell>
                <mxCell id="Nqgy3YUJCUdTd1dHTm8s-41" value="repeat 3 times (for i)&amp;nbsp;" style="shape=hexagon;perimeter=hexagonPerimeter2;whiteSpace=wrap;html=1;fixedSize=1;" parent="1" vertex="1">
                    <mxGeometry x="6167" y="397.5" width="236" height="80" as="geometry"/>
                </mxCell>
                <mxCell id="Nqgy3YUJCUdTd1dHTm8s-42" style="edgeStyle=orthogonalEdgeStyle;rounded=0;orthogonalLoop=1;jettySize=auto;html=1;entryX=0.5;entryY=0;entryDx=0;entryDy=0;" parent="1" source="Nqgy3YUJCUdTd1dHTm8s-45" target="Nqgy3YUJCUdTd1dHTm8s-46" edge="1">
                    <mxGeometry relative="1" as="geometry"/>
                </mxCell>
                <mxCell id="Nqgy3YUJCUdTd1dHTm8s-43" value="" style="edgeStyle=orthogonalEdgeStyle;rounded=0;orthogonalLoop=1;jettySize=auto;html=1;" parent="1" source="Nqgy3YUJCUdTd1dHTm8s-45" target="Nqgy3YUJCUdTd1dHTm8s-49" edge="1">
                    <mxGeometry relative="1" as="geometry"/>
                </mxCell>
                <mxCell id="Nqgy3YUJCUdTd1dHTm8s-44" style="edgeStyle=orthogonalEdgeStyle;rounded=0;orthogonalLoop=1;jettySize=auto;html=1;entryX=0.5;entryY=1;entryDx=0;entryDy=0;" parent="1" source="Nqgy3YUJCUdTd1dHTm8s-45" target="Nqgy3YUJCUdTd1dHTm8s-54" edge="1">
                    <mxGeometry relative="1" as="geometry"/>
                </mxCell>
                <mxCell id="Nqgy3YUJCUdTd1dHTm8s-45" value="&lt;div&gt;&lt;div&gt;(playBoard[0][i] == &#39;X&#39; || playBoard[0][i] == &#39;x&#39;) &amp;amp;&amp;amp;&lt;/div&gt;&lt;div&gt;(playBoard[1][i] == &#39;X&#39; || playBoard[1][i] == &#39;x&#39;) &amp;amp;&amp;amp;&lt;/div&gt;&lt;div&gt;(playBoard[2][i] == &#39;X&#39; || playBoard[2][i] == &#39;x&#39;)&lt;/div&gt;&lt;/div&gt;&lt;div&gt;&lt;br&gt;&lt;/div&gt;" style="rhombus;whiteSpace=wrap;html=1;" parent="1" vertex="1">
                    <mxGeometry x="6075.5" y="537.5" width="420" height="180" as="geometry"/>
                </mxCell>
                <mxCell id="Nqgy3YUJCUdTd1dHTm8s-46" value="winner = X" style="rounded=0;whiteSpace=wrap;html=1;" parent="1" vertex="1">
                    <mxGeometry x="6510" y="707.5" width="120" height="60" as="geometry"/>
                </mxCell>
                <mxCell id="Nqgy3YUJCUdTd1dHTm8s-47" style="edgeStyle=orthogonalEdgeStyle;rounded=0;orthogonalLoop=1;jettySize=auto;html=1;entryX=0.5;entryY=0;entryDx=0;entryDy=0;" parent="1" source="Nqgy3YUJCUdTd1dHTm8s-49" target="Nqgy3YUJCUdTd1dHTm8s-51" edge="1">
                    <mxGeometry relative="1" as="geometry"/>
                </mxCell>
                <mxCell id="Nqgy3YUJCUdTd1dHTm8s-48" style="edgeStyle=orthogonalEdgeStyle;rounded=0;orthogonalLoop=1;jettySize=auto;html=1;entryX=0.5;entryY=1;entryDx=0;entryDy=0;" parent="1" source="Nqgy3YUJCUdTd1dHTm8s-49" target="Nqgy3YUJCUdTd1dHTm8s-54" edge="1">
                    <mxGeometry relative="1" as="geometry"/>
                </mxCell>
                <mxCell id="Nqgy3YUJCUdTd1dHTm8s-49" value="&lt;div&gt;&lt;div&gt;&lt;div&gt;(playBoard[0][i] == &#39;O&#39; || playBoard[0][i] == &#39;o&#39;) &amp;amp;&amp;amp;&lt;/div&gt;&lt;div&gt;(playBoard[1][i] == &#39;O&#39; || playBoard[1][i] == &#39;o&#39;) &amp;amp;&amp;amp;&lt;/div&gt;&lt;div&gt;(playBoard[2][i] == &#39;O&#39; || playBoard[2][i] == &#39;o&#39;)&lt;/div&gt;&lt;/div&gt;&lt;/div&gt;&lt;div&gt;&lt;br&gt;&lt;/div&gt;" style="rhombus;whiteSpace=wrap;html=1;" parent="1" vertex="1">
                    <mxGeometry x="6075" y="832.5" width="420" height="180" as="geometry"/>
                </mxCell>
                <mxCell id="Nqgy3YUJCUdTd1dHTm8s-50" value="True" style="text;html=1;align=center;verticalAlign=middle;whiteSpace=wrap;rounded=0;" parent="1" vertex="1">
                    <mxGeometry x="6490" y="592.5" width="60" height="30" as="geometry"/>
                </mxCell>
                <mxCell id="Nqgy3YUJCUdTd1dHTm8s-51" value="winner = O" style="rounded=0;whiteSpace=wrap;html=1;" parent="1" vertex="1">
                    <mxGeometry x="6510" y="990" width="120" height="60" as="geometry"/>
                </mxCell>
                <mxCell id="Nqgy3YUJCUdTd1dHTm8s-52" value="True" style="text;html=1;align=center;verticalAlign=middle;whiteSpace=wrap;rounded=0;" parent="1" vertex="1">
                    <mxGeometry x="6490" y="875" width="60" height="30" as="geometry"/>
                </mxCell>
                <mxCell id="Nqgy3YUJCUdTd1dHTm8s-53" style="edgeStyle=orthogonalEdgeStyle;rounded=0;orthogonalLoop=1;jettySize=auto;html=1;entryX=0;entryY=0.5;entryDx=0;entryDy=0;" parent="1" source="Nqgy3YUJCUdTd1dHTm8s-54" target="Nqgy3YUJCUdTd1dHTm8s-41" edge="1">
                    <mxGeometry relative="1" as="geometry">
                        <Array as="points">
                            <mxPoint x="5950" y="437.5"/>
                        </Array>
                    </mxGeometry>
                </mxCell>
                <mxCell id="Nqgy3YUJCUdTd1dHTm8s-54" value="i = i + 1" style="rounded=0;whiteSpace=wrap;html=1;" parent="1" vertex="1">
                    <mxGeometry x="5890" y="487.5" width="120" height="60" as="geometry"/>
                </mxCell>
                <mxCell id="Nqgy3YUJCUdTd1dHTm8s-58" value="" style="edgeStyle=orthogonalEdgeStyle;rounded=0;orthogonalLoop=1;jettySize=auto;html=1;" parent="1" source="Nqgy3YUJCUdTd1dHTm8s-13" target="Nqgy3YUJCUdTd1dHTm8s-57" edge="1">
                    <mxGeometry relative="1" as="geometry">
                        <mxPoint x="5643" y="330" as="sourcePoint"/>
                        <mxPoint x="6285" y="398" as="targetPoint"/>
                    </mxGeometry>
                </mxCell>
                <mxCell id="Nqgy3YUJCUdTd1dHTm8s-57" value="i = 0" style="rounded=0;whiteSpace=wrap;html=1;" parent="1" vertex="1">
                    <mxGeometry x="5940" y="300" width="120" height="60" as="geometry"/>
                </mxCell>
                <mxCell id="Nqgy3YUJCUdTd1dHTm8s-67" style="edgeStyle=orthogonalEdgeStyle;rounded=0;orthogonalLoop=1;jettySize=auto;html=1;" parent="1" source="Nqgy3YUJCUdTd1dHTm8s-60" target="Nqgy3YUJCUdTd1dHTm8s-62" edge="1">
                    <mxGeometry relative="1" as="geometry"/>
                </mxCell>
                <mxCell id="Nqgy3YUJCUdTd1dHTm8s-68" style="edgeStyle=orthogonalEdgeStyle;rounded=0;orthogonalLoop=1;jettySize=auto;html=1;entryX=0.5;entryY=0;entryDx=0;entryDy=0;" parent="1" source="Nqgy3YUJCUdTd1dHTm8s-60" target="Nqgy3YUJCUdTd1dHTm8s-61" edge="1">
                    <mxGeometry relative="1" as="geometry"/>
                </mxCell>
                <mxCell id="Nqgy3YUJCUdTd1dHTm8s-60" value="&lt;div&gt;&lt;div&gt;&lt;div&gt;(playBoard[0][0] == &#39;X&#39; || playBoard[0][0] == &#39;x&#39;) &amp;amp;&amp;amp;&lt;/div&gt;&lt;div&gt;(playBoard[1][1] == &#39;X&#39; || playBoard[1][1] == &#39;x&#39;) &amp;amp;&amp;amp;&lt;/div&gt;&lt;div&gt;(playBoard[2][2] == &#39;X&#39; || playBoard[2][2] == &#39;x&#39;)&lt;/div&gt;&lt;/div&gt;&lt;/div&gt;&lt;div&gt;&lt;br&gt;&lt;/div&gt;" style="rhombus;whiteSpace=wrap;html=1;" parent="1" vertex="1">
                    <mxGeometry x="6710.5" y="515" width="420" height="180" as="geometry"/>
                </mxCell>
                <mxCell id="Nqgy3YUJCUdTd1dHTm8s-61" value="winner = X" style="rounded=0;whiteSpace=wrap;html=1;" parent="1" vertex="1">
                    <mxGeometry x="7145" y="685" width="120" height="60" as="geometry"/>
                </mxCell>
                <mxCell id="Nqgy3YUJCUdTd1dHTm8s-69" style="edgeStyle=orthogonalEdgeStyle;rounded=0;orthogonalLoop=1;jettySize=auto;html=1;entryX=0.5;entryY=0;entryDx=0;entryDy=0;" parent="1" source="Nqgy3YUJCUdTd1dHTm8s-62" target="Nqgy3YUJCUdTd1dHTm8s-64" edge="1">
                    <mxGeometry relative="1" as="geometry"/>
                </mxCell>
                <mxCell id="Nqgy3YUJCUdTd1dHTm8s-79" style="edgeStyle=orthogonalEdgeStyle;rounded=0;orthogonalLoop=1;jettySize=auto;html=1;" parent="1" source="Nqgy3YUJCUdTd1dHTm8s-62" target="Nqgy3YUJCUdTd1dHTm8s-72" edge="1">
                    <mxGeometry relative="1" as="geometry"/>
                </mxCell>
                <mxCell id="Nqgy3YUJCUdTd1dHTm8s-62" value="&lt;div&gt;&lt;div&gt;&lt;div&gt;&lt;div&gt;(playBoard[0][0] == &#39;O&#39; || playBoard[0][0] == &#39;o&#39;) &amp;amp;&amp;amp;&lt;/div&gt;&lt;div&gt;(playBoard[1][1] == &#39;O&#39; || playBoard[1][1] == &#39;o&#39;) &amp;amp;&amp;amp;&lt;/div&gt;&lt;div&gt;(playBoard[2][2] == &#39;O&#39; || playBoard[2][2] == &#39;o&#39;)&lt;/div&gt;&lt;/div&gt;&lt;/div&gt;&lt;/div&gt;&lt;div&gt;&lt;br&gt;&lt;/div&gt;" style="rhombus;whiteSpace=wrap;html=1;" parent="1" vertex="1">
                    <mxGeometry x="6710" y="810" width="420" height="180" as="geometry"/>
                </mxCell>
                <mxCell id="Nqgy3YUJCUdTd1dHTm8s-63" value="True" style="text;html=1;align=center;verticalAlign=middle;whiteSpace=wrap;rounded=0;" parent="1" vertex="1">
                    <mxGeometry x="7125" y="570" width="60" height="30" as="geometry"/>
                </mxCell>
                <mxCell id="Nqgy3YUJCUdTd1dHTm8s-64" value="winner = O" style="rounded=0;whiteSpace=wrap;html=1;" parent="1" vertex="1">
                    <mxGeometry x="7145" y="967.5" width="120" height="60" as="geometry"/>
                </mxCell>
                <mxCell id="Nqgy3YUJCUdTd1dHTm8s-65" value="True" style="text;html=1;align=center;verticalAlign=middle;whiteSpace=wrap;rounded=0;" parent="1" vertex="1">
                    <mxGeometry x="7125" y="852.5" width="60" height="30" as="geometry"/>
                </mxCell>
                <mxCell id="Nqgy3YUJCUdTd1dHTm8s-70" style="edgeStyle=orthogonalEdgeStyle;rounded=0;orthogonalLoop=1;jettySize=auto;html=1;" parent="1" source="Nqgy3YUJCUdTd1dHTm8s-72" target="Nqgy3YUJCUdTd1dHTm8s-75" edge="1">
                    <mxGeometry relative="1" as="geometry"/>
                </mxCell>
                <mxCell id="Nqgy3YUJCUdTd1dHTm8s-71" style="edgeStyle=orthogonalEdgeStyle;rounded=0;orthogonalLoop=1;jettySize=auto;html=1;entryX=0.5;entryY=0;entryDx=0;entryDy=0;" parent="1" source="Nqgy3YUJCUdTd1dHTm8s-72" target="Nqgy3YUJCUdTd1dHTm8s-73" edge="1">
                    <mxGeometry relative="1" as="geometry"/>
                </mxCell>
                <mxCell id="Nqgy3YUJCUdTd1dHTm8s-72" value="&lt;div&gt;&lt;div&gt;&lt;div&gt;&lt;div&gt;(playBoard[0][2] == &#39;X&#39; || playBoard[0][2] == &#39;x&#39;) &amp;amp;&amp;amp;&lt;/div&gt;&lt;div&gt;(playBoard[1][1] == &#39;X&#39; || playBoard[1][1] == &#39;x&#39;) &amp;amp;&amp;amp;&lt;/div&gt;&lt;div&gt;(playBoard[2][0] == &#39;X&#39; || playBoard[2][0] == &#39;x&#39;)&lt;/div&gt;&lt;/div&gt;&lt;/div&gt;&lt;/div&gt;&lt;div&gt;&lt;br&gt;&lt;/div&gt;" style="rhombus;whiteSpace=wrap;html=1;" parent="1" vertex="1">
                    <mxGeometry x="6711" y="1113.75" width="420" height="180" as="geometry"/>
                </mxCell>
                <mxCell id="Nqgy3YUJCUdTd1dHTm8s-73" value="winner = X" style="rounded=0;whiteSpace=wrap;html=1;" parent="1" vertex="1">
                    <mxGeometry x="7145.5" y="1283.75" width="120" height="60" as="geometry"/>
                </mxCell>
                <mxCell id="Nqgy3YUJCUdTd1dHTm8s-74" style="edgeStyle=orthogonalEdgeStyle;rounded=0;orthogonalLoop=1;jettySize=auto;html=1;entryX=0.5;entryY=0;entryDx=0;entryDy=0;" parent="1" source="Nqgy3YUJCUdTd1dHTm8s-75" target="Nqgy3YUJCUdTd1dHTm8s-77" edge="1">
                    <mxGeometry relative="1" as="geometry"/>
                </mxCell>
                <mxCell id="Nqgy3YUJCUdTd1dHTm8s-81" style="edgeStyle=orthogonalEdgeStyle;rounded=0;orthogonalLoop=1;jettySize=auto;html=1;" parent="1" source="Nqgy3YUJCUdTd1dHTm8s-75" target="Nqgy3YUJCUdTd1dHTm8s-80" edge="1">
                    <mxGeometry relative="1" as="geometry"/>
                </mxCell>
                <mxCell id="Nqgy3YUJCUdTd1dHTm8s-75" value="&lt;div&gt;&lt;div&gt;&lt;div&gt;&lt;div&gt;&lt;div&gt;(playBoard[0][2] == &#39;O&#39; || playBoard[0][2] == &#39;o&#39;) &amp;amp;&amp;amp;&lt;/div&gt;&lt;div&gt;(playBoard[1][1] == &#39;O&#39; || playBoard[1][1] == &#39;o&#39;) &amp;amp;&amp;amp;&lt;/div&gt;&lt;div&gt;(playBoard[2][0] == &#39;O&#39; || playBoard[2][0] == &#39;o&#39;)&lt;/div&gt;&lt;/div&gt;&lt;/div&gt;&lt;/div&gt;&lt;/div&gt;&lt;div&gt;&lt;br&gt;&lt;/div&gt;" style="rhombus;whiteSpace=wrap;html=1;" parent="1" vertex="1">
                    <mxGeometry x="6710.5" y="1408.75" width="420" height="180" as="geometry"/>
                </mxCell>
                <mxCell id="Nqgy3YUJCUdTd1dHTm8s-76" value="True" style="text;html=1;align=center;verticalAlign=middle;whiteSpace=wrap;rounded=0;" parent="1" vertex="1">
                    <mxGeometry x="7125.5" y="1168.75" width="60" height="30" as="geometry"/>
                </mxCell>
                <mxCell id="Nqgy3YUJCUdTd1dHTm8s-77" value="winner = O" style="rounded=0;whiteSpace=wrap;html=1;" parent="1" vertex="1">
                    <mxGeometry x="7145.5" y="1566.25" width="120" height="60" as="geometry"/>
                </mxCell>
                <mxCell id="Nqgy3YUJCUdTd1dHTm8s-78" value="True" style="text;html=1;align=center;verticalAlign=middle;whiteSpace=wrap;rounded=0;" parent="1" vertex="1">
                    <mxGeometry x="7125.5" y="1451.25" width="60" height="30" as="geometry"/>
                </mxCell>
                <mxCell id="Nqgy3YUJCUdTd1dHTm8s-89" style="edgeStyle=orthogonalEdgeStyle;rounded=0;orthogonalLoop=1;jettySize=auto;html=1;" parent="1" source="Nqgy3YUJCUdTd1dHTm8s-80" target="Nqgy3YUJCUdTd1dHTm8s-82" edge="1">
                    <mxGeometry relative="1" as="geometry">
                        <Array as="points">
                            <mxPoint x="7205" y="1800"/>
                        </Array>
                    </mxGeometry>
                </mxCell>
                <mxCell id="Nqgy3YUJCUdTd1dHTm8s-80" value="winner != &quot; &quot;&amp;nbsp;&amp;nbsp;" style="rhombus;whiteSpace=wrap;html=1;" parent="1" vertex="1">
                    <mxGeometry x="6710.5" y="1710" width="420" height="180" as="geometry"/>
                </mxCell>
                <mxCell id="Nqgy3YUJCUdTd1dHTm8s-87" value="" style="edgeStyle=orthogonalEdgeStyle;rounded=0;orthogonalLoop=1;jettySize=auto;html=1;" parent="1" source="Nqgy3YUJCUdTd1dHTm8s-82" target="Nqgy3YUJCUdTd1dHTm8s-86" edge="1">
                    <mxGeometry relative="1" as="geometry"/>
                </mxCell>
                <mxCell id="Nqgy3YUJCUdTd1dHTm8s-82" value="Player `winner` wins" style="shape=parallelogram;perimeter=parallelogramPerimeter;whiteSpace=wrap;html=1;fixedSize=1;" parent="1" vertex="1">
                    <mxGeometry x="7097.5" y="1900" width="215" height="60" as="geometry"/>
                </mxCell>
                <mxCell id="Nqgy3YUJCUdTd1dHTm8s-86" value="END" style="rounded=1;whiteSpace=wrap;html=1;arcSize=50;" parent="1" vertex="1">
                    <mxGeometry x="7144.5" y="2020" width="120" height="60" as="geometry"/>
                </mxCell>
                <mxCell id="Nqgy3YUJCUdTd1dHTm8s-88" value="True" style="text;html=1;align=center;verticalAlign=middle;whiteSpace=wrap;rounded=0;" parent="1" vertex="1">
                    <mxGeometry x="7130" y="1760" width="60" height="30" as="geometry"/>
                </mxCell>
                <mxCell id="2" value="" style="shape=flexArrow;endArrow=classic;html=1;width=17.6;endSize=4.904;" edge="1" parent="1">
                    <mxGeometry width="50" height="50" relative="1" as="geometry">
                        <mxPoint x="7320" y="2049.6" as="sourcePoint"/>
                        <mxPoint x="7370" y="2049.6" as="targetPoint"/>
                    </mxGeometry>
                </mxCell>
                <mxCell id="3" value="Exit(0)" style="text;html=1;align=center;verticalAlign=middle;whiteSpace=wrap;rounded=0;" vertex="1" parent="1">
                    <mxGeometry x="7400" y="2035" width="60" height="30" as="geometry"/>
                </mxCell>
            </root>
        </mxGraphModel>
    </diagram>
</mxfile>